<mxfile host="app.diagrams.net" modified="2024-01-02T15:04:12.156Z" agent="Mozilla/5.0 (Windows NT 10.0; Win64; x64) AppleWebKit/537.36 (KHTML, like Gecko) Chrome/120.0.0.0 Safari/537.36" version="22.1.16" etag="iZ5Soc-Y0u9Lwpew-IaP" type="device">
  <diagram id="4f_9B3qsldWHsnAXsb4t" name="第1頁">
    <mxGraphModel dx="794" dy="859" grid="0" gridSize="10" guides="1" tooltips="1" connect="1" arrows="1" fold="1" page="0" pageScale="1" pageWidth="827" pageHeight="1169" math="0" shadow="0">
      <root>
        <mxCell id="0" />
        <mxCell id="1" parent="0" />
        <mxCell id="5moh-K5nebXSy-n8Y64M-1" value="美食訊息評論" style="rounded=1;whiteSpace=wrap;html=1;fontSize=16;arcSize=23;" parent="1" vertex="1">
          <mxGeometry x="276" y="183" width="105" height="33" as="geometry" />
        </mxCell>
        <mxCell id="5moh-K5nebXSy-n8Y64M-4" value="頭像" style="ellipse;whiteSpace=wrap;html=1;fontSize=16;rotation=0;direction=north;" parent="1" vertex="1">
          <mxGeometry x="263" y="-54" width="63" height="82" as="geometry" />
        </mxCell>
        <mxCell id="5moh-K5nebXSy-n8Y64M-5" value="用戶&lt;br style=&quot;border-color: var(--border-color);&quot;&gt;id" style="ellipse;whiteSpace=wrap;html=1;fontSize=16;rotation=0;direction=north;" parent="1" vertex="1">
          <mxGeometry x="192" y="-24" width="63" height="82" as="geometry" />
        </mxCell>
        <mxCell id="5moh-K5nebXSy-n8Y64M-6" value="關聯表id" style="ellipse;whiteSpace=wrap;html=1;fontSize=16;rotation=0;direction=north;" parent="1" vertex="1">
          <mxGeometry x="120" y="28" width="63" height="82" as="geometry" />
        </mxCell>
        <mxCell id="5moh-K5nebXSy-n8Y64M-7" value="評論&lt;br style=&quot;border-color: var(--border-color);&quot;&gt;內容" style="ellipse;whiteSpace=wrap;html=1;fontSize=16;rotation=0;direction=north;" parent="1" vertex="1">
          <mxGeometry x="418" y="-24" width="63" height="82" as="geometry" />
        </mxCell>
        <mxCell id="5moh-K5nebXSy-n8Y64M-9" value="回覆內容" style="ellipse;whiteSpace=wrap;html=1;fontSize=16;rotation=0;direction=north;" parent="1" vertex="1">
          <mxGeometry x="486" y="28" width="63" height="82" as="geometry" />
        </mxCell>
        <mxCell id="5moh-K5nebXSy-n8Y64M-22" value="" style="endArrow=none;html=1;rounded=0;fontSize=12;startSize=8;endSize=8;curved=1;entryX=0.5;entryY=0;entryDx=0;entryDy=0;" parent="1" source="5moh-K5nebXSy-n8Y64M-6" target="5moh-K5nebXSy-n8Y64M-1" edge="1">
          <mxGeometry width="50" height="50" relative="1" as="geometry">
            <mxPoint x="261" y="137" as="sourcePoint" />
            <mxPoint x="307" y="87" as="targetPoint" />
          </mxGeometry>
        </mxCell>
        <mxCell id="5moh-K5nebXSy-n8Y64M-23" value="" style="endArrow=none;html=1;rounded=0;fontSize=12;startSize=8;endSize=8;curved=1;entryX=0.5;entryY=0;entryDx=0;entryDy=0;" parent="1" source="5moh-K5nebXSy-n8Y64M-5" target="5moh-K5nebXSy-n8Y64M-1" edge="1">
          <mxGeometry width="50" height="50" relative="1" as="geometry">
            <mxPoint x="261" y="137" as="sourcePoint" />
            <mxPoint x="311" y="87" as="targetPoint" />
          </mxGeometry>
        </mxCell>
        <mxCell id="5moh-K5nebXSy-n8Y64M-24" value="" style="endArrow=none;html=1;rounded=0;fontSize=12;startSize=8;endSize=8;curved=1;exitX=0.5;exitY=0;exitDx=0;exitDy=0;" parent="1" source="5moh-K5nebXSy-n8Y64M-1" target="5moh-K5nebXSy-n8Y64M-4" edge="1">
          <mxGeometry width="50" height="50" relative="1" as="geometry">
            <mxPoint x="261" y="137" as="sourcePoint" />
            <mxPoint x="311" y="87" as="targetPoint" />
          </mxGeometry>
        </mxCell>
        <mxCell id="5moh-K5nebXSy-n8Y64M-25" value="" style="endArrow=none;html=1;rounded=0;fontSize=12;startSize=8;endSize=8;curved=1;exitX=0.5;exitY=0;exitDx=0;exitDy=0;" parent="1" source="5moh-K5nebXSy-n8Y64M-1" target="QNMv-VAHNYzLaz92xDh0-1" edge="1">
          <mxGeometry width="50" height="50" relative="1" as="geometry">
            <mxPoint x="261" y="137" as="sourcePoint" />
            <mxPoint x="369.9411265063436" y="2.5296313991975694" as="targetPoint" />
          </mxGeometry>
        </mxCell>
        <mxCell id="5moh-K5nebXSy-n8Y64M-26" value="" style="endArrow=none;html=1;rounded=0;fontSize=12;startSize=8;endSize=8;curved=1;exitX=0.5;exitY=0;exitDx=0;exitDy=0;" parent="1" source="5moh-K5nebXSy-n8Y64M-1" target="5moh-K5nebXSy-n8Y64M-7" edge="1">
          <mxGeometry width="50" height="50" relative="1" as="geometry">
            <mxPoint x="261" y="137" as="sourcePoint" />
            <mxPoint x="311" y="87" as="targetPoint" />
          </mxGeometry>
        </mxCell>
        <mxCell id="5moh-K5nebXSy-n8Y64M-27" value="" style="endArrow=none;html=1;rounded=0;fontSize=12;startSize=8;endSize=8;curved=1;exitX=0.5;exitY=0;exitDx=0;exitDy=0;" parent="1" source="5moh-K5nebXSy-n8Y64M-1" target="5moh-K5nebXSy-n8Y64M-9" edge="1">
          <mxGeometry width="50" height="50" relative="1" as="geometry">
            <mxPoint x="261" y="137" as="sourcePoint" />
            <mxPoint x="311" y="87" as="targetPoint" />
          </mxGeometry>
        </mxCell>
        <mxCell id="QNMv-VAHNYzLaz92xDh0-1" value="用戶名" style="ellipse;whiteSpace=wrap;html=1;fontSize=16;rotation=0;direction=north;" vertex="1" parent="1">
          <mxGeometry x="345" y="-54" width="63" height="82" as="geometry" />
        </mxCell>
      </root>
    </mxGraphModel>
  </diagram>
</mxfile>
